<?xml version="1.0" encoding="UTF-8"?>
<svg width="256px" height="256px" viewBox="0 0 256 256" version="1.1" xmlns="http://www.w3.org/2000/svg">
    <g stroke="none" stroke-width="1" fill="none" fill-rule="evenodd">
        <path d="M128,10 C193.917,10 247,63.083 247,129 C247,194.917 193.917,248 128,248 C62.083,248 9,194.917 9,129 C9,63.083 62.083,10 128,10 Z" fill="#2496ED"/>
        <path d="M128,80 C141.255,80 152,90.745 152,104 C152,117.255 141.255,128 128,128 C114.745,128 104,117.255 104,104 C104,90.745 114.745,80 128,80 Z M88,144 L168,144 L168,168 L88,168 L88,144 Z" fill="#FFFFFF"/>
    </g>
</svg>
